<svg xmlns="http://www.w3.org/2000/svg" viewBox="0 0 200 100">
<g fill="none" stroke="#ffb800" stroke-width="4.5" stroke-linecap="round" stroke-linejoin="round">
<circle cx="30" cy="12" r="6"/><line x1="30" y1="18" x2="32" y2="48"/><line x1="32" y1="48" x2="28" y2="78"/><line x1="30" y1="22" x2="18" y2="30"/><line x1="30" y1="22" x2="42" y2="18"/>
</g>
<line x1="82" y1="50" x2="115" y2="50" stroke="#8b8d92" stroke-width="3" stroke-dasharray="2,5" stroke-linecap="round"/><path d="M108 43 L118 50 L108 57" fill="none" stroke="#8b8d92" stroke-width="3" stroke-linecap="round" stroke-linejoin="round"/>
<g fill="none" stroke="#ffb800" stroke-width="4.5" stroke-linecap="round" stroke-linejoin="round">
<circle cx="26" cy="16" r="6"/><line x1="26" y1="22" x2="30" y2="48"/><line x1="30" y1="48" x2="16" y2="58"/><line x1="16" y1="58" x2="20" y2="78"/><line x1="30" y1="48" x2="50" y2="52"/><line x1="50" y1="52" x2="44" y2="78"/><line x1="26" y1="26" x2="14" y2="36"/><line x1="26" y1="26" x2="40" y2="20"/>
</g>
</svg>
