<svg xmlns="http://www.w3.org/2000/svg" viewBox="0 0 200 100">
<g fill="none" stroke="#ffb800" stroke-width="4.5" stroke-linecap="round" stroke-linejoin="round">
<line x1="14" y1="10" x2="56" y2="10"/><circle cx="35" cy="24" r="7"/><line x1="35" y1="31" x2="35" y2="58"/><line x1="35" y1="58" x2="27" y2="78"/><line x1="35" y1="58" x2="43" y2="78"/><line x1="35" y1="37" x2="18" y2="12"/><line x1="35" y1="37" x2="52" y2="12"/>
</g>
<line x1="82" y1="50" x2="115" y2="50" stroke="#8b8d92" stroke-width="3" stroke-dasharray="2,5" stroke-linecap="round"/><path d="M108 43 L118 50 L108 57" fill="none" stroke="#8b8d92" stroke-width="3" stroke-linecap="round" stroke-linejoin="round"/>
<g fill="none" stroke="#ffb800" stroke-width="4.5" stroke-linecap="round" stroke-linejoin="round">
<line x1="14" y1="10" x2="56" y2="10"/><circle cx="35" cy="24" r="7"/><line x1="35" y1="31" x2="35" y2="58"/><line x1="35" y1="58" x2="27" y2="78"/><line x1="35" y1="58" x2="43" y2="78"/><line x1="35" y1="34" x2="22" y2="30"/><line x1="35" y1="34" x2="48" y2="30"/><line x1="22" y1="30" x2="18" y2="12"/><line x1="48" y1="30" x2="52" y2="12"/>
</g>
</svg>
