<svg xmlns="http://www.w3.org/2000/svg" viewBox="0 0 200 100">
<g fill="none" stroke="#ffb800" stroke-width="4.5" stroke-linecap="round" stroke-linejoin="round">
<circle cx="58" cy="38" r="7"/><line x1="58" y1="45" x2="38" y2="58"/><line x1="38" y1="58" x2="20" y2="52"/><line x1="38" y1="58" x2="40" y2="80"/><line x1="58" y1="52" x2="64" y2="80"/><line x1="52" y1="50" x2="18" y2="50"/><circle cx="14" cy="50" r="4" fill="#ffb800"/>
</g>
<line x1="82" y1="50" x2="115" y2="50" stroke="#8b8d92" stroke-width="3" stroke-dasharray="2,5" stroke-linecap="round"/><path d="M108 43 L118 50 L108 57" fill="none" stroke="#8b8d92" stroke-width="3" stroke-linecap="round" stroke-linejoin="round"/>
<g fill="none" stroke="#ffb800" stroke-width="4.5" stroke-linecap="round" stroke-linejoin="round">
<circle cx="58" cy="38" r="7"/><line x1="58" y1="45" x2="38" y2="58"/><line x1="38" y1="58" x2="20" y2="55"/><line x1="38" y1="58" x2="40" y2="80"/><line x1="58" y1="52" x2="64" y2="80"/><line x1="50" y1="46" x2="30" y2="46"/><circle cx="26" cy="46" r="4" fill="#ffb800"/>
</g>
</svg>
